<svg xmlns="http://www.w3.org/2000/svg" xmlns:xlink="http://www.w3.org/1999/xlink" width="1280" zoomAndPan="magnify" viewBox="0 0 960 479.999983" height="640" preserveAspectRatio="xMidYMid meet" version="1.0"><defs><clipPath id="bec9c65060"><path d="M 314.371094 74.371094 L 645.628906 74.371094 L 645.628906 405.628906 L 314.371094 405.628906 Z M 314.371094 74.371094 " clip-rule="nonzero"/></clipPath><clipPath id="127377aff4"><path d="M 383.371094 74.371094 L 576.628906 74.371094 C 614.734375 74.371094 645.628906 105.265625 645.628906 143.371094 L 645.628906 336.628906 C 645.628906 374.734375 614.734375 405.628906 576.628906 405.628906 L 383.371094 405.628906 C 345.265625 405.628906 314.371094 374.734375 314.371094 336.628906 L 314.371094 143.371094 C 314.371094 105.265625 345.265625 74.371094 383.371094 74.371094 Z M 383.371094 74.371094 " clip-rule="nonzero"/></clipPath><clipPath id="912d213c07"><path d="M 0.371094 0.371094 L 331.628906 0.371094 L 331.628906 331.628906 L 0.371094 331.628906 Z M 0.371094 0.371094 " clip-rule="nonzero"/></clipPath><clipPath id="da34ceb289"><path d="M 69.371094 0.371094 L 262.628906 0.371094 C 300.734375 0.371094 331.628906 31.265625 331.628906 69.371094 L 331.628906 262.628906 C 331.628906 300.734375 300.734375 331.628906 262.628906 331.628906 L 69.371094 331.628906 C 31.265625 331.628906 0.371094 300.734375 0.371094 262.628906 L 0.371094 69.371094 C 0.371094 31.265625 31.265625 0.371094 69.371094 0.371094 Z M 69.371094 0.371094 " clip-rule="nonzero"/></clipPath><clipPath id="ab906e3c22"><rect x="0" width="332" y="0" height="332"/></clipPath><clipPath id="7d4a6cb005"><path d="M 375 133 L 624.109375 133 L 624.109375 386 L 375 386 Z M 375 133 " clip-rule="nonzero"/></clipPath><clipPath id="00ddc892f3"><path d="M 374.359375 132.34375 L 590 132.34375 L 590 351 L 374.359375 351 Z M 374.359375 132.34375 " clip-rule="nonzero"/></clipPath></defs><g clip-path="url(#bec9c65060)"><g clip-path="url(#127377aff4)"><g transform="matrix(1, 0, 0, 1, 314, 74)"><g clip-path="url(#ab906e3c22)"><g clip-path="url(#912d213c07)"><g clip-path="url(#da34ceb289)"><path fill="#cbbeff" d="M 0.371094 0.371094 L 331.628906 0.371094 L 331.628906 331.628906 L 0.371094 331.628906 Z M 0.371094 0.371094 " fill-opacity="1" fill-rule="nonzero"/></g></g></g></g></g></g><g clip-path="url(#7d4a6cb005)"><path fill="#ece7ff" d="M 375.539062 152.332031 C 376.507812 138.246094 384.339844 134.988281 397.816406 133.667969 C 411.292969 132.34375 478.730469 133.667969 478.730469 133.667969 L 478.730469 160.519531 C 478.730469 160.519531 455.132812 169.011719 457.113281 184.421875 C 459.097656 199.832031 466.625 208.019531 478.730469 208.988281 L 478.730469 236.195312 L 443.6875 237.773438 C 443.992188 257.046875 428.941406 260.097656 418.769531 254.859375 C 408.597656 249.621094 411.242188 237.773438 411.242188 237.773438 L 375.539062 237.773438 C 375.539062 237.773438 374.523438 166.417969 375.539062 152.332031 Z M 528.570312 256.4375 L 519.210938 280.289062 C 525.773438 282.882812 533.351562 293.003906 529.636719 307.496094 C 525.925781 321.992188 510.261719 329.367188 501.257812 325.855469 L 491.191406 351.4375 C 491.191406 351.4375 557.050781 379.714844 565.796875 382.765625 C 574.542969 385.816406 586.445312 388.867188 594.277344 370.050781 C 602.109375 351.183594 624.179688 294.070312 624.179688 294.070312 L 592.089844 281.457031 C 592.089844 281.457031 596.566406 260.914062 586.292969 255.675781 C 576.019531 250.4375 564.679688 255.929688 561.015625 267.269531 Z M 528.570312 256.4375 " fill-opacity="1" fill-rule="nonzero"/></g><g clip-path="url(#00ddc892f3)"><path fill="#3b2d8e" d="M 569.96875 133.058594 C 590.359375 133.667969 588.886719 147.652344 589.648438 155.433594 C 590.410156 163.214844 589.648438 237.722656 589.648438 237.722656 L 563.304688 237.722656 C 562.542969 231.3125 552.167969 213.664062 532.484375 217.023438 C 512.804688 220.378906 514.683594 237.722656 514.683594 237.722656 L 488.339844 237.722656 L 488.339844 203.289062 C 477.964844 203.648438 466.421875 194.746094 467.539062 184.015625 C 468.660156 173.234375 480.152344 166.570312 486.816406 168.453125 L 488.289062 133.058594 C 488.289062 133.058594 549.523438 132.445312 569.96875 133.058594 Z M 450.808594 245.65625 C 452.285156 256.4375 435.957031 272.355469 421.109375 268.285156 C 406.257812 264.21875 402.546875 245.65625 402.546875 245.65625 L 375.082031 245.65625 C 375.082031 245.65625 374.726562 308.003906 375.082031 325.09375 C 375.4375 342.183594 388.457031 349.605469 398.121094 350.015625 C 407.785156 350.421875 478.527344 348.132812 478.527344 348.132812 L 478.730469 314.363281 C 493.273438 315.480469 502.074219 302.871094 500.191406 294.324219 C 498.359375 285.78125 489.816406 279.117188 478.730469 280.949219 C 478.730469 280.949219 478.324219 246.824219 478.730469 245.707031 L 450.808594 245.707031 Z M 450.808594 245.65625 " fill-opacity="1" fill-rule="nonzero"/></g></svg>